<?xml version="1.0" encoding="UTF-8"?>
<svg xmlns="http://www.w3.org/2000/svg" xmlns:xlink="http://www.w3.org/1999/xlink" viewBox="0 0 24 24" width="24px" height="24px">
<g id="surface1885180">
<path style=" stroke:none;fill-rule:nonzero;fill:rgb(88.235295%,82.745099%,73.333335%);fill-opacity:1;" d="M 12 2 C 6.5 2 2 6.5 2 12 C 2 17.5 6.5 22 12 22 C 17.5 22 22 17.5 22 12 C 22 6.5 17.5 2 12 2 Z M 16.058594 16.40625 C 15.867188 16.40625 15.773438 16.3125 15.585938 16.21875 C 14.175781 15.371094 12.390625 14.902344 10.507812 14.902344 C 9.472656 14.902344 8.34375 15.089844 7.402344 15.277344 C 7.214844 15.277344 7.027344 15.371094 6.933594 15.371094 C 6.558594 15.371094 6.277344 15.089844 6.277344 14.714844 C 6.277344 14.335938 6.464844 14.054688 6.839844 14.054688 C 8.0625 13.773438 9.285156 13.585938 10.601562 13.585938 C 12.765625 13.585938 14.742188 14.148438 16.433594 15.089844 C 16.621094 15.277344 16.8125 15.371094 16.8125 15.746094 C 16.621094 16.21875 16.339844 16.40625 16.058594 16.40625 Z M 17.089844 13.773438 C 16.902344 13.773438 16.714844 13.679688 16.527344 13.585938 C 14.929688 12.550781 12.671875 11.984375 10.226562 11.984375 C 9.003906 11.984375 7.871094 12.175781 7.027344 12.363281 C 6.839844 12.457031 6.746094 12.457031 6.558594 12.457031 C 6.085938 12.457031 5.804688 12.078125 5.804688 11.703125 C 5.804688 11.234375 5.992188 11.046875 6.460938 10.855469 C 7.589844 10.574219 8.71875 10.292969 10.320312 10.292969 C 12.953125 10.292969 15.398438 10.949219 17.46875 12.171875 C 17.75 12.359375 17.9375 12.644531 17.9375 12.925781 C 17.84375 13.394531 17.5625 13.773438 17.089844 13.773438 Z M 18.3125 10.761719 C 18.125 10.761719 18.03125 10.667969 17.75 10.574219 C 15.867188 9.539062 13.140625 8.882812 10.507812 8.882812 C 9.191406 8.882812 7.777344 9.070312 6.554688 9.351562 C 6.367188 9.351562 6.273438 9.445312 5.992188 9.445312 C 5.429688 9.539062 5.050781 9.070312 5.050781 8.503906 C 5.050781 7.941406 5.332031 7.65625 5.710938 7.5625 C 7.214844 7.1875 8.8125 7 10.507812 7 C 13.421875 7 16.433594 7.65625 18.785156 8.882812 C 19.066406 9.070312 19.347656 9.351562 19.347656 9.820312 C 19.253906 10.386719 18.878906 10.761719 18.3125 10.761719 Z M 18.3125 10.761719 "/>
</g>
</svg>
